<svg xmlns="http://www.w3.org/2000/svg" viewBox="0 0 100 100" class="logo-svg">
  <!-- Schoolhouse structure -->
  <g fill="#8B2E2C">
    <!-- Main building -->
    <rect x="25" y="45" width="50" height="40" rx="2"/>
    
    <!-- Roof -->
    <path d="M 20 45 L 50 20 L 80 45 Z"/>
    
    <!-- Bell tower -->
    <rect x="45" y="15" width="10" height="15"/>
    <path d="M 43 15 L 50 10 L 57 15 Z"/>
    
    <!-- Bell -->
    <circle cx="50" cy="22" r="3"/>
    
    <!-- Door -->
    <rect x="43" y="60" width="14" height="25" fill="#2F4733"/>
    
    <!-- Windows -->
    <rect x="30" y="52" width="10" height="12" fill="#EFE7DA" stroke="#8B2E2C" stroke-width="1"/>
    <rect x="60" y="52" width="10" height="12" fill="#EFE7DA" stroke="#8B2E2C" stroke-width="1"/>
    
    <!-- Window panes -->
    <line x1="35" y1="52" x2="35" y2="64" stroke="#8B2E2C" stroke-width="0.5"/>
    <line x1="30" y1="58" x2="40" y2="58" stroke="#8B2E2C" stroke-width="0.5"/>
    <line x1="65" y1="52" x2="65" y2="64" stroke="#8B2E2C" stroke-width="0.5"/>
    <line x1="60" y1="58" x2="70" y2="58" stroke="#8B2E2C" stroke-width="0.5"/>
    
    <!-- Foundation -->
    <rect x="22" y="82" width="56" height="3" fill="#8C6A4A"/>
  </g>
  
  <!-- Decorative rays -->
  <g stroke="#D8C4A6" stroke-width="0.5" fill="none" opacity="0.6">
    <line x1="50" y1="8" x2="50" y2="2"/>
    <line x1="58" y1="10" x2="62" y2="6"/>
    <line x1="42" y1="10" x2="38" y2="6"/>
    <line x1="60" y1="15" x2="66" y2="12"/>
    <line x1="40" y1="15" x2="34" y2="12"/>
  </g>
</svg>